<mxfile host="app.diagrams.net" modified="2023-06-26T08:59:01.425Z" agent="Mozilla/5.0 (Windows NT 10.0; Win64; x64) AppleWebKit/537.36 (KHTML, like Gecko) Chrome/114.0.0.0 Safari/537.36" etag="YoxcrVO21sl2SLEf5bMX" version="21.5.0" type="device">
  <diagram name="Страница 1" id="wb95V9fmfzoFwG9OGzhx">
    <mxGraphModel dx="1050" dy="581" grid="1" gridSize="10" guides="1" tooltips="1" connect="1" arrows="1" fold="1" page="1" pageScale="1" pageWidth="827" pageHeight="1169" math="0" shadow="0">
      <root>
        <mxCell id="0" />
        <mxCell id="1" parent="0" />
        <mxCell id="eq1vNLM6nVf822fjMOBg-1" value="Helper Bot" style="rounded=0;whiteSpace=wrap;html=1;" vertex="1" parent="1">
          <mxGeometry x="380" y="20" width="120" height="60" as="geometry" />
        </mxCell>
        <mxCell id="eq1vNLM6nVf822fjMOBg-23" value="" style="edgeStyle=orthogonalEdgeStyle;rounded=0;orthogonalLoop=1;jettySize=auto;html=1;" edge="1" parent="1" source="eq1vNLM6nVf822fjMOBg-4" target="eq1vNLM6nVf822fjMOBg-21">
          <mxGeometry relative="1" as="geometry" />
        </mxCell>
        <mxCell id="eq1vNLM6nVf822fjMOBg-26" value="" style="edgeStyle=orthogonalEdgeStyle;rounded=0;orthogonalLoop=1;jettySize=auto;html=1;exitX=0.617;exitY=1.024;exitDx=0;exitDy=0;exitPerimeter=0;" edge="1" parent="1" source="eq1vNLM6nVf822fjMOBg-4" target="eq1vNLM6nVf822fjMOBg-25">
          <mxGeometry relative="1" as="geometry" />
        </mxCell>
        <mxCell id="eq1vNLM6nVf822fjMOBg-4" value="UserDict" style="rounded=0;whiteSpace=wrap;html=1;" vertex="1" parent="1">
          <mxGeometry x="170" y="140" width="120" height="60" as="geometry" />
        </mxCell>
        <mxCell id="eq1vNLM6nVf822fjMOBg-5" value="SortingFiles" style="rounded=0;whiteSpace=wrap;html=1;" vertex="1" parent="1">
          <mxGeometry x="520" y="140" width="150" height="30" as="geometry" />
        </mxCell>
        <mxCell id="eq1vNLM6nVf822fjMOBg-6" value="+path: Path&lt;br&gt;+lst_files_addresses: list&lt;br&gt;+lst_known: list&lt;br&gt;+del_empty_folders()&lt;br&gt;+removing_files()&lt;br&gt;+sort_extensions()&lt;br&gt;+dict_extensions: dict&lt;br&gt;+files_addresses()" style="whiteSpace=wrap;html=1;aspect=fixed;align=left;" vertex="1" parent="1">
          <mxGeometry x="520" y="170" width="150" height="150" as="geometry" />
        </mxCell>
        <mxCell id="eq1vNLM6nVf822fjMOBg-8" value="" style="endArrow=classic;startArrow=classic;html=1;rounded=0;exitX=0.5;exitY=0;exitDx=0;exitDy=0;entryX=0.456;entryY=-0.1;entryDx=0;entryDy=0;entryPerimeter=0;" edge="1" parent="1" target="eq1vNLM6nVf822fjMOBg-5">
          <mxGeometry width="50" height="50" relative="1" as="geometry">
            <mxPoint x="240" y="140" as="sourcePoint" />
            <mxPoint x="650" y="100" as="targetPoint" />
            <Array as="points">
              <mxPoint x="240" y="100" />
              <mxPoint x="330" y="100" />
              <mxPoint x="430" y="100" />
              <mxPoint x="590" y="100" />
            </Array>
          </mxGeometry>
        </mxCell>
        <mxCell id="eq1vNLM6nVf822fjMOBg-11" value="" style="endArrow=classic;html=1;rounded=0;" edge="1" parent="1">
          <mxGeometry width="50" height="50" relative="1" as="geometry">
            <mxPoint x="439.5" y="80" as="sourcePoint" />
            <mxPoint x="440" y="100" as="targetPoint" />
          </mxGeometry>
        </mxCell>
        <mxCell id="eq1vNLM6nVf822fjMOBg-24" style="edgeStyle=orthogonalEdgeStyle;rounded=0;orthogonalLoop=1;jettySize=auto;html=1;exitX=0.75;exitY=1;exitDx=0;exitDy=0;" edge="1" parent="1" source="eq1vNLM6nVf822fjMOBg-21" target="eq1vNLM6nVf822fjMOBg-22">
          <mxGeometry relative="1" as="geometry" />
        </mxCell>
        <mxCell id="eq1vNLM6nVf822fjMOBg-21" value="Notes" style="rounded=0;whiteSpace=wrap;html=1;" vertex="1" parent="1">
          <mxGeometry x="5" y="350" width="150" height="30" as="geometry" />
        </mxCell>
        <mxCell id="eq1vNLM6nVf822fjMOBg-22" value="+add_note()&lt;br&gt;+find()&lt;br&gt;+del_notes()&lt;br&gt;+edit_notes()&lt;br&gt;+save()&lt;br&gt;+show_all_sorted_notes()&lt;br&gt;+load()" style="whiteSpace=wrap;html=1;aspect=fixed;align=left;" vertex="1" parent="1">
          <mxGeometry x="5" y="380" width="150" height="150" as="geometry" />
        </mxCell>
        <mxCell id="eq1vNLM6nVf822fjMOBg-25" value="AddressBook" style="rounded=0;whiteSpace=wrap;html=1;" vertex="1" parent="1">
          <mxGeometry x="170" y="350" width="150" height="30" as="geometry" />
        </mxCell>
        <mxCell id="eq1vNLM6nVf822fjMOBg-29" value="+&lt;font style=&quot;font-size: 12px;&quot;&gt;get_contact()&lt;br&gt;+add_record()&lt;br&gt;+delete_record()&lt;br&gt;+sort_addressbook()&lt;br&gt;+search()&lt;br&gt;+save_records_to_file()&lt;br&gt;+read_records_from_file()&lt;/font&gt;" style="whiteSpace=wrap;html=1;aspect=fixed;align=left;" vertex="1" parent="1">
          <mxGeometry x="170" y="380" width="150" height="150" as="geometry" />
        </mxCell>
        <mxCell id="eq1vNLM6nVf822fjMOBg-35" value="&lt;span style=&quot;background-color: initial;&quot;&gt;+user: User&lt;br&gt;&lt;/span&gt;&lt;span style=&quot;background-color: initial;&quot;&gt;+emails:List&lt;br&gt;&lt;/span&gt;&lt;span style=&quot;background-color: initial;&quot;&gt;+phone_numbers: List&lt;br&gt;&lt;/span&gt;+add_phone_number()&lt;br&gt;+change_phone_number()&lt;br&gt;+delete_phone_number()&lt;br&gt;+add_email()&lt;br&gt;+change_email()&lt;br&gt;+delete_email()&lt;br&gt;+add_birthday()&lt;br&gt;+days_to_birthday()&lt;span style=&quot;background-color: initial;&quot;&gt;&lt;br&gt;&lt;/span&gt;" style="rounded=0;whiteSpace=wrap;html=1;align=left;" vertex="1" parent="1">
          <mxGeometry x="414" y="380" width="146" height="170" as="geometry" />
        </mxCell>
        <mxCell id="eq1vNLM6nVf822fjMOBg-36" value="Record&lt;br&gt;" style="rounded=0;whiteSpace=wrap;html=1;" vertex="1" parent="1">
          <mxGeometry x="414" y="350" width="146" height="30" as="geometry" />
        </mxCell>
        <mxCell id="eq1vNLM6nVf822fjMOBg-37" value="" style="endArrow=classic;startArrow=classic;html=1;rounded=0;" edge="1" parent="1" source="eq1vNLM6nVf822fjMOBg-25">
          <mxGeometry width="50" height="50" relative="1" as="geometry">
            <mxPoint x="320" y="375" as="sourcePoint" />
            <mxPoint x="410" y="365" as="targetPoint" />
          </mxGeometry>
        </mxCell>
        <mxCell id="eq1vNLM6nVf822fjMOBg-38" value="" style="rhombus;whiteSpace=wrap;html=1;align=left;rounded=0;" vertex="1" parent="1">
          <mxGeometry x="610" y="360" width="50" height="45" as="geometry" />
        </mxCell>
        <mxCell id="eq1vNLM6nVf822fjMOBg-41" value="+birthday_date: date&amp;nbsp;&lt;br&gt;+birthday_date:&amp;nbsp;None&lt;br&gt;+name: str&amp;nbsp;&lt;br&gt;+name:&amp;nbsp;None&lt;span style=&quot;background-color: initial;&quot;&gt;&lt;br&gt;&lt;/span&gt;" style="rounded=0;whiteSpace=wrap;html=1;align=left;" vertex="1" parent="1">
          <mxGeometry x="670" y="380" width="150" height="60" as="geometry" />
        </mxCell>
        <mxCell id="eq1vNLM6nVf822fjMOBg-43" value="User" style="rounded=0;whiteSpace=wrap;html=1;" vertex="1" parent="1">
          <mxGeometry x="670" y="350" width="150" height="30" as="geometry" />
        </mxCell>
        <mxCell id="eq1vNLM6nVf822fjMOBg-44" value="Phone" style="rounded=0;whiteSpace=wrap;html=1;" vertex="1" parent="1">
          <mxGeometry x="670" y="450" width="150" height="30" as="geometry" />
        </mxCell>
        <mxCell id="eq1vNLM6nVf822fjMOBg-45" value="+phone: str&lt;br&gt;+phone: None&lt;span style=&quot;background-color: initial;&quot;&gt;&lt;br&gt;&lt;/span&gt;" style="rounded=0;whiteSpace=wrap;html=1;align=left;" vertex="1" parent="1">
          <mxGeometry x="670" y="480" width="150" height="30" as="geometry" />
        </mxCell>
        <mxCell id="eq1vNLM6nVf822fjMOBg-46" value="Email" style="rounded=0;whiteSpace=wrap;html=1;" vertex="1" parent="1">
          <mxGeometry x="670" y="520" width="150" height="30" as="geometry" />
        </mxCell>
        <mxCell id="eq1vNLM6nVf822fjMOBg-47" value="+email: str&lt;br&gt;+email: None&lt;span style=&quot;background-color: initial;&quot;&gt;&lt;br&gt;&lt;/span&gt;" style="rounded=0;whiteSpace=wrap;html=1;align=left;" vertex="1" parent="1">
          <mxGeometry x="670" y="550" width="150" height="30" as="geometry" />
        </mxCell>
        <mxCell id="eq1vNLM6nVf822fjMOBg-48" value="" style="endArrow=classic;html=1;rounded=0;exitX=0;exitY=0.5;exitDx=0;exitDy=0;entryX=1;entryY=0.75;entryDx=0;entryDy=0;" edge="1" parent="1" source="eq1vNLM6nVf822fjMOBg-38" target="eq1vNLM6nVf822fjMOBg-36">
          <mxGeometry width="50" height="50" relative="1" as="geometry">
            <mxPoint x="580" y="482.2556390977443" as="sourcePoint" />
            <mxPoint x="640" y="480" as="targetPoint" />
          </mxGeometry>
        </mxCell>
        <mxCell id="eq1vNLM6nVf822fjMOBg-49" value="" style="endArrow=none;html=1;rounded=0;" edge="1" parent="1">
          <mxGeometry width="50" height="50" relative="1" as="geometry">
            <mxPoint x="640" y="364.5" as="sourcePoint" />
            <mxPoint x="670" y="364.5" as="targetPoint" />
            <Array as="points">
              <mxPoint x="650" y="364.5" />
            </Array>
          </mxGeometry>
        </mxCell>
        <mxCell id="eq1vNLM6nVf822fjMOBg-50" value="" style="endArrow=none;html=1;rounded=0;" edge="1" parent="1">
          <mxGeometry width="50" height="50" relative="1" as="geometry">
            <mxPoint x="635" y="540" as="sourcePoint" />
            <mxPoint x="634.5" y="405" as="targetPoint" />
            <Array as="points">
              <mxPoint x="635" y="480" />
            </Array>
          </mxGeometry>
        </mxCell>
        <mxCell id="eq1vNLM6nVf822fjMOBg-51" value="" style="endArrow=none;html=1;rounded=0;" edge="1" parent="1">
          <mxGeometry width="50" height="50" relative="1" as="geometry">
            <mxPoint x="630" y="540" as="sourcePoint" />
            <mxPoint x="670" y="540" as="targetPoint" />
          </mxGeometry>
        </mxCell>
        <mxCell id="eq1vNLM6nVf822fjMOBg-52" value="" style="endArrow=none;html=1;rounded=0;" edge="1" parent="1">
          <mxGeometry width="50" height="50" relative="1" as="geometry">
            <mxPoint x="630" y="480" as="sourcePoint" />
            <mxPoint x="670" y="480" as="targetPoint" />
          </mxGeometry>
        </mxCell>
      </root>
    </mxGraphModel>
  </diagram>
</mxfile>
